<?xml version="1.0" encoding="iso-8859-1"?>
<!-- Generator: Adobe Illustrator 16.0.0, SVG Export Plug-In . SVG Version: 6.00 Build 0)  -->
<!DOCTYPE svg PUBLIC "-//W3C//DTD SVG 1.1//EN" "http://www.w3.org/Graphics/SVG/1.1/DTD/svg11.dtd">
<svg version="1.1" id="Capa_1" xmlns="http://www.w3.org/2000/svg" xmlns:xlink="http://www.w3.org/1999/xlink" x="0px" y="0px"
	 width="502.28px" height="502.28px" viewBox="0 0 502.28 502.28" style="enable-background:new 0 0 502.28 502.28;"
	 xml:space="preserve">
<g>
	<g>
		<path d="M196.997,391.156c0.275,0.233,0.609,0.348,0.943,0.348c0.413,0,0.819-0.187,1.111-0.517l9.909-11.69l9.913,11.69
			c0.289,0.33,0.696,0.517,1.111,0.517c0.333,0,0.667-0.114,0.943-0.348c0.615-0.527,0.685-1.441,0.169-2.058l-10.226-12.05
			l10.226-12.045c0.521-0.615,0.446-1.538-0.169-2.057c-0.613-0.521-1.532-0.444-2.054,0.165L208.96,374.8l-9.909-11.688
			c-0.52-0.609-1.441-0.681-2.054-0.165c-0.616,0.519-0.688,1.441-0.172,2.057l10.229,12.045l-10.229,12.05
			C196.312,389.714,196.384,390.628,196.997,391.156z"/>
		<path d="M196.997,331.687c-0.616,0.527-0.688,1.441-0.172,2.057l10.229,12.048l-10.229,12.051
			c-0.521,0.615-0.443,1.529,0.172,2.057c0.275,0.23,0.609,0.345,0.943,0.345c0.413,0,0.819-0.183,1.111-0.52l9.909-11.688
			l9.913,11.688c0.289,0.335,0.696,0.52,1.111,0.52c0.333,0,0.667-0.114,0.943-0.345c0.615-0.527,0.685-1.441,0.169-2.057
			l-10.226-12.051l10.226-12.048c0.521-0.615,0.446-1.529-0.169-2.057c-0.613-0.524-1.532-0.44-2.054,0.175l-9.913,11.68
			l-9.909-11.68C198.533,331.247,197.609,331.174,196.997,331.687z"/>
		<path d="M287.167,391.156c0.274,0.233,0.61,0.348,0.94,0.348c0.416,0,0.826-0.187,1.111-0.517l9.913-11.69l9.908,11.69
			c0.296,0.33,0.687,0.517,1.11,0.517c0.328,0,0.668-0.114,0.938-0.348c0.618-0.527,0.684-1.441,0.174-2.058l-10.227-12.05
			l10.227-12.045c0.529-0.615,0.444-1.538-0.174-2.057c-0.609-0.521-1.529-0.444-2.048,0.165l-9.908,11.688l-9.913-11.688
			c-0.519-0.609-1.437-0.681-2.052-0.165s-0.689,1.441-0.171,2.057l10.228,12.045l-10.228,12.05
			C286.472,389.714,286.552,390.628,287.167,391.156z"/>
		<path d="M286.996,333.744l10.228,12.048l-10.228,12.051c-0.524,0.615-0.444,1.529,0.171,2.057c0.274,0.23,0.61,0.345,0.94,0.345
			c0.416,0,0.826-0.183,1.111-0.52l9.913-11.688l9.908,11.688c0.296,0.335,0.687,0.52,1.11,0.52c0.328,0,0.668-0.114,0.938-0.345
			c0.618-0.527,0.684-1.441,0.174-2.057l-10.227-12.051l10.227-12.048c0.529-0.615,0.444-1.529-0.174-2.057
			c-0.609-0.524-1.529-0.44-2.048,0.175l-9.908,11.68l-9.913-11.68c-0.519-0.61-1.437-0.681-2.052-0.175
			C286.552,332.209,286.472,333.128,286.996,333.744z"/>
		<path d="M386.737,500.571c-0.012-0.07-0.006-0.148-0.029-0.219l-112.11-333.081h0.503c0.797,0,1.458-0.654,1.458-1.458
			s-0.661-1.458-1.458-1.458h-1.482l-21.018-62.432v-54.49V8.436c0-0.201-0.045-0.396-0.12-0.568
			c-0.008-0.023-0.025-0.039-0.036-0.056c-0.074-0.153-0.168-0.3-0.289-0.417c-0.005-0.002-0.007-0.008-0.01-0.012
			C246.935,2.414,241.346,0,235.062,0c-7.651,0-15.247,3.62-22.592,7.118c-7.05,3.36-14.344,6.84-21.333,6.84c0,0,0,0-0.002,0
			c-5.502,0-10.427-2.15-15.07-6.575c-0.426-0.409-1.045-0.522-1.581-0.289c-0.54,0.23-0.887,0.756-0.887,1.338v39
			c0,0.4,0.167,0.785,0.451,1.057c5.21,4.966,10.8,7.382,17.084,7.382c0.002,0,0.002,0,0.002,0c7.647,0,15.248-3.621,22.589-7.121
			c7.051-3.362,14.344-6.838,21.333-6.838c5.325,0,10.109,2.034,14.621,6.173v53.833L115.57,500.352
			c-0.025,0.07-0.015,0.148-0.028,0.219c-0.014,0.08-0.053,0.163-0.053,0.239c0,0.025,0.012,0.043,0.012,0.06
			c0.002,0.103,0.038,0.186,0.061,0.294c0.023,0.083,0.035,0.186,0.073,0.268c0.035,0.073,0.091,0.146,0.144,0.205
			c0.058,0.077,0.107,0.18,0.181,0.24c0.061,0.059,0.134,0.088,0.204,0.142c0.089,0.06,0.175,0.119,0.277,0.162
			c0.017,0.005,0.029,0.022,0.049,0.034c0.155,0.054,0.306,0.065,0.461,0.065h268.376c0.162,0,0.305-0.022,0.467-0.065
			c0.018-0.012,0.029-0.022,0.046-0.034c0.103-0.043,0.185-0.097,0.276-0.162c0.066-0.054,0.147-0.076,0.202-0.142
			c0.06-0.061,0.12-0.158,0.186-0.24c0.051-0.06,0.102-0.132,0.147-0.205c0.034-0.077,0.052-0.177,0.068-0.262
			c0.022-0.098,0.058-0.186,0.061-0.3c0-0.017,0.011-0.034,0.011-0.06C386.788,500.734,386.749,500.656,386.737,500.571z
			 M300.157,499.358l-7.879-21.794h83.69l7.333,21.794H300.157z M118.98,499.358l8.136-24.176h82.785l-8.742,24.176H118.98z
			 M190.071,288.152h7.705c0.805,0,1.458-0.657,1.458-1.458s-0.654-1.459-1.458-1.459h-6.722l23.492-69.787h73.188l23.511,69.851
			c-0.657,0.143-1.155,0.695-1.155,1.396c0,0.804,0.66,1.458,1.459,1.458h0.666l62.78,186.504h-83.775l-39.012-107.871
			l19.178-53.027c0.279-0.758-0.12-1.59-0.877-1.863c-0.75-0.278-1.593,0.113-1.873,0.872L250.646,362.5l-17.988-49.733
			c-0.272-0.759-1.114-1.146-1.868-0.872c-0.757,0.273-1.155,1.105-0.874,1.863l19.176,53.027l-38.14,105.478H128.1L190.071,288.152
			z M218.555,203.554h65.183l3.02,8.968h-71.228L218.555,203.554z M250.657,371.063l38.194,105.599c0,0.005,0,0.011,0,0.011
			l8.206,22.674h-92.794L250.657,371.063z M282.751,200.637h-63.216l11.234-33.369h40.753L282.751,200.637z M231.751,164.354
			l19.391-57.625l19.394,57.625H231.751z M235.062,38.992c-7.651,0-15.247,3.618-22.589,7.118
			c-7.051,3.361-14.343,6.838-21.333,6.838h-0.003c-5.321,0-10.114-2.01-14.624-6.149V11.63c4.504,3.524,9.311,5.245,14.621,5.245
			c0.002,0,0.002,0,0.002,0c7.652,0,15.249-3.619,22.589-7.12c7.054-3.36,14.347-6.837,21.333-6.837
			c5.321,0,10.111,2.01,14.622,6.149v35.175C245.182,40.717,240.378,38.992,235.062,38.992z"/>
		<path d="M241.539,288.152h8.751c0.805,0,1.458-0.657,1.458-1.458s-0.653-1.459-1.458-1.459h-8.751
			c-0.802,0-1.458,0.658-1.458,1.459S240.736,288.152,241.539,288.152z"/>
		<path d="M224.036,288.152h8.751c0.805,0,1.459-0.657,1.459-1.458s-0.655-1.459-1.459-1.459h-8.751
			c-0.802,0-1.458,0.658-1.458,1.459S223.233,288.152,224.036,288.152z"/>
		<path d="M259.038,288.152h8.751c0.799,0,1.46-0.657,1.46-1.458s-0.661-1.459-1.46-1.459h-8.751c-0.803,0-1.458,0.658-1.458,1.459
			S258.235,288.152,259.038,288.152z"/>
		<path d="M294.044,288.152h8.751c0.798,0,1.459-0.657,1.459-1.458s-0.661-1.459-1.459-1.459h-8.751
			c-0.803,0-1.459,0.658-1.459,1.459S293.241,288.152,294.044,288.152z"/>
		<path d="M206.533,288.152h8.751c0.805,0,1.458-0.657,1.458-1.458s-0.653-1.459-1.458-1.459h-8.751
			c-0.802,0-1.458,0.658-1.458,1.459S205.731,288.152,206.533,288.152z"/>
		<path d="M276.542,288.152h8.751c0.797,0,1.458-0.657,1.458-1.458s-0.661-1.459-1.458-1.459h-8.751
			c-0.805,0-1.459,0.658-1.459,1.459S275.737,288.152,276.542,288.152z"/>
		<path d="M311.548,297.525h1.709c0.797,0,1.458-0.658,1.458-1.459c0-0.8-0.661-1.458-1.458-1.458h-1.709
			c-0.805,0-1.459,0.658-1.459,1.458C310.089,296.881,310.743,297.525,311.548,297.525z"/>
		<path d="M259.038,297.525h8.751c0.799,0,1.46-0.658,1.46-1.459c0-0.8-0.661-1.458-1.46-1.458h-8.751
			c-0.803,0-1.458,0.658-1.458,1.458C257.58,296.881,258.235,297.525,259.038,297.525z"/>
		<path d="M276.542,297.525h8.751c0.797,0,1.458-0.658,1.458-1.459c0-0.8-0.661-1.458-1.458-1.458h-8.751
			c-0.805,0-1.459,0.658-1.459,1.458C275.083,296.881,275.737,297.525,276.542,297.525z"/>
		<path d="M294.044,297.525h8.751c0.798,0,1.459-0.658,1.459-1.459c0-0.8-0.661-1.458-1.459-1.458h-8.751
			c-0.803,0-1.459,0.658-1.459,1.458C292.585,296.881,293.241,297.525,294.044,297.525z"/>
		<path d="M224.036,297.525h8.751c0.805,0,1.459-0.658,1.459-1.459c0-0.8-0.655-1.458-1.459-1.458h-8.751
			c-0.802,0-1.458,0.658-1.458,1.458C222.577,296.881,223.233,297.525,224.036,297.525z"/>
		<path d="M241.539,297.525h8.751c0.805,0,1.458-0.658,1.458-1.459c0-0.8-0.653-1.458-1.458-1.458h-8.751
			c-0.802,0-1.458,0.658-1.458,1.458C240.08,296.881,240.736,297.525,241.539,297.525z"/>
		<path d="M206.533,297.525h8.751c0.805,0,1.458-0.658,1.458-1.459c0-0.8-0.653-1.458-1.458-1.458h-8.751
			c-0.802,0-1.458,0.658-1.458,1.458C205.074,296.881,205.731,297.525,206.533,297.525z"/>
		<path d="M189.03,297.525h8.752c0.805,0,1.458-0.658,1.458-1.459c0-0.8-0.654-1.458-1.458-1.458h-8.752
			c-0.802,0-1.458,0.658-1.458,1.458C187.571,296.881,188.228,297.525,189.03,297.525z"/>
		<path d="M310.157,404.8h-22.057c-0.803,0-1.458,0.659-1.458,1.459c0,0.804,0.655,1.458,1.458,1.458h22.057
			c0.803,0,1.458-0.654,1.458-1.458C311.615,405.459,310.966,404.8,310.157,404.8z"/>
		<path d="M219.989,404.8H197.94c-0.807,0-1.459,0.659-1.459,1.459c0,0.804,0.653,1.458,1.459,1.458h22.049
			c0.807,0,1.458-0.654,1.458-1.458C221.447,405.459,220.804,404.8,219.989,404.8z"/>
	</g>
</g>
<g>
</g>
<g>
</g>
<g>
</g>
<g>
</g>
<g>
</g>
<g>
</g>
<g>
</g>
<g>
</g>
<g>
</g>
<g>
</g>
<g>
</g>
<g>
</g>
<g>
</g>
<g>
</g>
<g>
</g>
</svg>
