<svg height="661pt" viewBox="-20 -51 661.33331 661" width="661pt" xmlns="http://www.w3.org/2000/svg"><path d="m610 538.160156h-60v-310h60c4.085938-.003906 7.753906-2.488281 9.273438-6.28125 1.515624-3.789062.578124-8.125-2.375-10.949218l-220-210c-3.8125-3.636719-9.796876-3.691407-13.679688-.117188l-128.925781 119c-15.628907-19.621094-39.210938-31.230469-64.292969-31.652344-49.617188 0-90 47.101563-90 105-.65625 33.660156 14.070312 65.773438 40 87.242188v32.25l-70.179688 23.390625c-23.796874 7.910156-39.839843 30.175781-39.820312 55.25v146.867187h-20c-5.523438 0-10 4.480469-10 10 0 5.523438 4.476562 10 10 10h600c5.523438 0 10-4.476562 10-10 0-5.519531-4.476562-10-10-10zm-80 0h-50v-220c0-5.519531-4.476562-10-10-10h-150c-5.523438 0-10 4.480469-10 10v17.824219l-70-23.332031v-32.25c16.648438-13.453125 28.78125-31.683594 34.75-52.242188h255.25zm-200-190.589844v-19.410156h50v210h-30v-146.867187c-.03125-16.777344-7.324219-32.726563-20-43.722657zm70-19.410156h60v210h-60zm-133.21875-192.648437 123.097656-113.628907 195.121094 186.277344h-306c.644531-4.972656.976562-9.984375 1-15 .085938-19.882812-4.890625-39.460937-14.46875-56.886718.4375-.222657.851562-.476563 1.25-.761719zm-146.78125 57.648437c0-46.867187 31.402344-85 70-85s70 38.132813 70 85c0 46.871094-31.402344 85-70 85s-70-38.128906-70-85zm-70 198.132813c-.007812-16.464844 10.527344-31.085938 26.152344-36.28125l76.996094-25.667969c4.09375-1.359375 6.851562-5.179688 6.851562-9.492188v-27.816406c19.164062 8.171875 40.835938 8.171875 60 0v27.816406c0 4.304688 2.753906 8.128907 6.839844 9.492188l76.996094 25.667969c15.632812 5.195312 26.171874 19.816406 26.164062 36.28125v146.867187h-280zm0 0"/></svg>